<svg xmlns="http://www.w3.org/2000/svg"><symbol id="brachiosaurus" viewBox="0 0 256 256"><path d="M59.65 166.36a32.27 32.27 0 0 0-7.61.86.49.49 0 0 1 0 .11.4.4 0 0 0 0 .13c0 .28.26.59.77 1a13.61 13.61 0 0 0 2 1c.79.33 1.68.66 2.63 1s1.89.59 2.78.84 1.68.44 2.38.59a10.54 10.54 0 0 0 1.45.21c.59 0 1.31 0 2.14-.09a15.21 15.21 0 0 0 2.49-.41 12.62 12.62 0 0 0 2.32-.9 4.29 4.29 0 0 0 1.68-1.45 27.74 27.74 0 0 0-6.33-2.18 30.9 30.9 0 0 0-6.7-.71z"/><path d="M128 1.66a126 126 0 1 0 126 126 126 126 0 0 0-126-126zm82.17 69.53v.31a6.71 6.71 0 0 1-.1 1.38c-.13.66-.19 1.36-.32 2.09s-.22 1.41-.35 2.07-.18 1.08-.23 1.33a9.85 9.85 0 0 0-.9 1.81c-.23.64-.44 1.28-.63 1.95s-.38 1.32-.58 2a14.27 14.27 0 0 1-.72 1.92 30.53 30.53 0 0 1-1.66 3 21 21 0 0 0-1.58 3l-19.78 27.48a3.14 3.14 0 0 1-.23.54 1.45 1.45 0 0 1-.27.28l-.31.28a3.55 3.55 0 0 0-.41.49l-1.64 2.24c-.64.89-1.33 1.84-2 2.86s-1.45 2.1-2.17 3.2-1.38 2.19-2 3.24a25.92 25.92 0 0 0-1.38 2.94 6.94 6.94 0 0 0-.52 2.31c0 .29-.22.52-.21.72s.19.43.19.69c-.16 0-.26.14-.26.37s.1.38.26.41v10.08a2.64 2.64 0 0 1-.24 1c-.16.37-.2.74-.36 1.16s-.49.8-.6 1.2-.44.78-.44 1.11v1.65a.39.39 0 0 1 0 .42c-.15.23-.21.5-.39.78s-.55.55-.71.8-.51.38-.51.41v.4c0 .08.69.21.78.41s.86.33.86.41v2.81a23.05 23.05 0 0 1-.61 3.48c-.18 1.17-.55 2.32-.76 3.47s-.48 2.32-.67 3.49a22.52 22.52 0 0 0-.32 3.48 61.77 61.77 0 0 0 .29 6.24 42.27 42.27 0 0 0 1.08 6.1 31.3 31.3 0 0 0 2.11 5.71 23.11 23.11 0 0 0 3.38 5.17 5.41 5.41 0 0 1-1.25.82 9.16 9.16 0 0 1-1.66.68 16.09 16.09 0 0 1-1.71.46 4.83 4.83 0 0 1-1.43.08l-.46-.1c-.29-.06-.62-.15-1-.25l-1.18-.26c-.41-.1-.72-.16-1-.21a6.07 6.07 0 0 1-.74-.15 4.16 4.16 0 0 1-.74-.28 2.81 2.81 0 0 1-.61-.48 1.38 1.38 0 0 1-.32-.7 29.78 29.78 0 0 0 .11-4c-.05-1.4-.15-2.81-.28-4.22s-.33-2.83-.51-4.24-.38-2.75-.52-4a2.6 2.6 0 0 1-.2-.62 1.45 1.45 0 0 0-.25-.59c.07-1.1.1-2.3.13-3.62a38.35 38.35 0 0 0-.13-4 25.76 25.76 0 0 0-.59-3.95 11.14 11.14 0 0 0-1.4-3.38 3.33 3.33 0 0 0-1.44 1.79 20.87 20.87 0 0 0-.77 2.69c-.22 1-.2 1.91-.43 2.86s-.92 1.73-.92 2.32V184c0 2.81-.22 5.55-.1 8.21s.2 5.38.56 8.14a2.15 2.15 0 0 0 .41.33c.26.18.51.38.8.59a5.28 5.28 0 0 1 .79.69.93.93 0 0 1 .34.62c0 .23-.27.5-.81.79a13.06 13.06 0 0 1-1.83.86 21.17 21.17 0 0 1-2 .82 12.28 12.28 0 0 1-1.27.41h-.18l-4.71-2.56a.47.47 0 0 1-.22-.48v-.59a20.82 20.82 0 0 1 0-3 21.71 21.71 0 0 0 .11-3 26.12 26.12 0 0 0-.31-3.76c-.16-1.23-.38-2.47-.58-3.68s-.41-2.47-.59-3.72a30.28 30.28 0 0 1-.25-3.86c0-1.22 0-2.32.11-3.29s.2-1.89.35-2.77.34-1.83.52-2.78.41-2 .66-3.17a1.4 1.4 0 0 0-.05-.71 4.44 4.44 0 0 1-.11-.71 7.82 7.82 0 0 0-1.86.22c-.61.14-1.22.31-1.84.51l-1.91.6a14.29 14.29 0 0 1-1.89.51l-1.35.2c-.37.05-.72.1-1.06.13s-.66-.12-1-.1-.68-.18-1.06-.18h-1.8c-1.79 0-3.54.11-5.21 0s-3.4-.15-5.21-.15c-.77 0-1.58.06-2.42.1a4 4 0 0 0-2.33.84v5.16c0 1.69-.09 3.37-.16 5s-.2 3.37-.26 5.06-.15 3.41-.15 5.15v5.04c0 .54.66 1.1 1.12 1.66s.94 1.12 1.39 1.69a16.68 16.68 0 0 1 1.18 1.74 3.39 3.39 0 0 1 .52 1.78v.38a9.27 9.27 0 0 1-4 .39c.08.48 0 .72-.23.79a3.37 3.37 0 0 1-.7.06h-2a10.13 10.13 0 0 1-2.24-.23 4.28 4.28 0 0 1-1.8-.84 2.2 2.2 0 0 1-.76-1.84 7 7 0 0 1 .13-1.28c.1-.43.2-.86.31-1.29s.23-.85.32-1.29a7 7 0 0 0 .13-1.38 24.64 24.64 0 0 0-.27-3.8c-.18-1.22-.41-2.4-.67-3.57s-.53-2.62-.8-3.79a26 26 0 0 1-.71-3.93h-.43c-.21 0-.38.75-.51.91s-.26.48-.39.68-.23.41-.31.53c-.5.74-1 1.53-1.55 2.25s-1 1.49-1.45 2.25a16.63 16.63 0 0 0-1.06 2.41 8.39 8.39 0 0 0-.43 2.67 4.18 4.18 0 0 0 .33 1.61 16.1 16.1 0 0 0 .72 1.5c.26.44.51.83.72 1.15a1.7 1.7 0 0 1 .33.57.82.82 0 0 1-.41.72 3 3 0 0 1-1 .46 10.26 10.26 0 0 1-1.32.27c-.46 0-.9.1-1.33.1h-1.24a12.45 12.45 0 0 1-1.71-.13 2.12 2.12 0 0 1-1.06-.39 2.19 2.19 0 0 1-.69-.87 9.33 9.33 0 0 1-.55-1.6c-.16-.54-.32-1.07-.51-1.6a5 5 0 0 1-.27-1.64 3.29 3.29 0 0 1 .41-1.48c.28-.51.59-1.05.93-1.58s.71-1 1-1.56a6.87 6.87 0 0 0 .81-1.43c.84-1.94 1.64-3.9 2.43-5.85s1.61-3.9 2.45-5.85a4 4 0 0 1 .46-.74c.18-.23.36-.48.53-.71a3.2 3.2 0 0 0 .42-.74 1.64 1.64 0 0 0 .18-.82c0-.36-.11-.58-.32-.62a3.07 3.07 0 0 0-.64-.09 1.89 1.89 0 0 0-.38.05h-.25l-8.91 2.41a2.73 2.73 0 0 1-1.29.53l-1.76.39a6.66 6.66 0 0 0-1.56.58 1.11 1.11 0 0 0-.69 1.05 1.47 1.47 0 0 0 .26.89 2.63 2.63 0 0 0 .64.65l.82.55a2.87 2.87 0 0 1 .74.6l-.39.43-1.27-.84a14.19 14.19 0 0 0-1.4-.82 9.53 9.53 0 0 0-1.49-.61 4.84 4.84 0 0 0-1.5-.23 14.71 14.71 0 0 0-3.76.51c-1.28.33-2.6.71-3.93 1.12s-2.68.81-4.06 1.13a16.82 16.82 0 0 1-4.17.51 21.62 21.62 0 0 1-3.44-.39c-1.48-.25-3.09-.62-4.84-1.1s-3.55-1.07-5.38-1.74a38.05 38.05 0 0 1-5-2.24A15.58 15.58 0 0 1 47 172a4.13 4.13 0 0 1-1.43-2.94 4.42 4.42 0 0 1 1.11-3.24 6.3 6.3 0 0 1 2.73-1.63 14 14 0 0 1 3.45-.15c1.22 0 2.34.33 3.32.33h3.95a2.55 2.55 0 0 1 1.26-.24c.69.08 1.47 0 2.32.14s1.71.19 2.53.32 1.5.18 2 .26a7.8 7.8 0 0 1 1.92.53c.59.28 1.18.55 1.77.85s1.19.52 1.81.75a6.19 6.19 0 0 0 2 .32 8.71 8.71 0 0 0 3.94-1.05 31.55 31.55 0 0 0 4.1-2.53c1.34-1 2.64-2 3.86-3.09s2.3-2 3.24-2.7a16.38 16.38 0 0 1 1.84-1.23c.62-.35 1.23-.71 1.84-1.09a17 17 0 0 0 1.71-1.25 8.19 8.19 0 0 0 1.48-1.69 36.24 36.24 0 0 0 2.59-4.44 31.16 31.16 0 0 1 2.68-4.42 7.27 7.27 0 0 1 1.3-1.3 13.68 13.68 0 0 1 1.53-1c.52-.3 1.07-.59 1.61-.87a17 17 0 0 0 1.61-.91 43.8 43.8 0 0 0 3.56-2.61c1.17-.94 2.31-1.91 3.42-2.89s2.24-2 3.34-3 2.23-1.94 3.42-2.84a20.81 20.81 0 0 1 3.74-2.19c1.32-.59 2.62-1.21 3.9-1.84q1.26-.57 2.46-1.26c.81-.45 1.63-.89 2.45-1.3a25.14 25.14 0 0 1 2.55-1.14 12.26 12.26 0 0 1 2.65-.73l22.2-3.24a10.91 10.91 0 0 0 3.47-1.12 20.18 20.18 0 0 0 3.33-2.17 31 31 0 0 0 3.16-2.86c1-1 2-2.14 2.89-3.22s1.81-2.15 2.65-3.19 1.59-2 2.3-2.78l7.64-8.9a2.23 2.23 0 0 0 .33-.27 6.75 6.75 0 0 0 .52-.54 6.19 6.19 0 0 0 .51-.53c.17-.14.25-.24.28-.26l2-3.24.25-.16.38-.23c.13-.08.26-.17.38-.23a.81.81 0 0 0 .21-.2 3 3 0 0 0 .41-.39c.2-.22.31-.33.36-.4.38-.49.79-1.05 1.23-1.69s.92-1.28 1.37-2 .89-1.31 1.3-1.93.72-1.22 1-1.71a12.61 12.61 0 0 0 .85-2l.69-2.1c.22-.73.5-1.45.76-2.17s1-1.47 1-2.19v-6a5.12 5.12 0 0 0-1.08-3.05 11.71 11.71 0 0 0-2.61-2.6 13.07 13.07 0 0 0-3.33-1.79 9.11 9.11 0 0 0-3.18-.68 24.25 24.25 0 0 0-5.77.68 12.22 12.22 0 0 0-5.08 2.61 12.62 12.62 0 0 0-1.43 1.42c-.51.59-1 1.21-1.59 1.85l-1.74 2a22.56 22.56 0 0 1-1.83 1.83 11.07 11.07 0 0 1-1.81 1.29 3.41 3.41 0 0 1-1.75.51 1.66 1.66 0 0 1-1.66-1.59v-.43c0-.08.06-.25.11-.48s.11-.49.16-.75.11-.53.14-.77a2.52 2.52 0 0 0 .07-.46 5.19 5.19 0 0 0-.24-1.66 13 13 0 0 0-.59-1.35c-.23-.41-.41-.81-.59-1.18a3 3 0 0 1-.25-1.24 1.08 1.08 0 0 0 .84-.26 2.73 2.73 0 0 0 .44-.62c.14-.25.28-.5.43-.74a1.71 1.71 0 0 1 .79-.6 1.35 1.35 0 0 1 .54 0c.23 0 .53-.11.86-.11s.64-.1.9-.1h.51a1.08 1.08 0 0 0 .94-.36 3.44 3.44 0 0 1 .7-.66.58.58 0 0 1 .23 0h.15a.9.9 0 0 1 .25.37 1.6 1.6 0 0 0 .18.42.45.45 0 0 1 .39-.38c.1-.07.32-.18.63-.36l1.1-.64 1.35-.81 1.33-.78c.42-.25.79-.46 1.08-.65a3.32 3.32 0 0 0 .56-.39 18.64 18.64 0 0 1 2.09-1.25 7.55 7.55 0 0 1 1.76-.62 9.34 9.34 0 0 1 1.9-.22h6.4a5.8 5.8 0 0 0 1.46.53c.51.13 1 .23 1.51.31l1.55.31a9 9 0 0 1 1.52.5 14.54 14.54 0 0 1 4.52 3 16.86 16.86 0 0 1 3.11 4.22 18.93 18.93 0 0 1 1.71 5 23.81 23.81 0 0 1 .48 5.4v1.52c0 .27-.02.52-.02.79z"/></symbol><symbol id="micropachycephalosaurus" viewBox="0 0 256 256"><path d="M132.83 150.6c-.28 0-.41.2-.41.59a.11.11 0 0 0-.08 0 .43.43 0 0 0-.48.49q0 .6.48.6c.28 0 .41-.2.41-.6h.08c.35 0 .51-.16.51-.49s-.16-.59-.51-.59zm1.45-.79a2.36 2.36 0 0 0-.86.79h.3a2.12 2.12 0 0 0 1.1-.33 2.32 2.32 0 0 0 .84-.77h-.3a2.12 2.12 0 0 0-1.08.31zm3.02-2.55c-.28 0-.41.18-.41.55h-.13c-.28 0-.43.18-.43.56h-.11c-.32 0-.48.19-.48.59s.16.54.48.54.46-.18.46-.54 0 0 .08 0c.31 0 .46-.2.46-.59s.05 0 .08 0c.35 0 .51-.19.51-.56s-.16-.55-.51-.55zm23.03-5.86a15.51 15.51 0 0 1-1.27 1.4 1.75 1.75 0 0 0 .81 1 2.94 2.94 0 0 0 1.13.2 2.13 2.13 0 0 0 1.38-.48 4.56 4.56 0 0 0 1.05-1.21 10.55 10.55 0 0 0 .76-1.45c.21-.51.38-1.17.49-1.17h-3.38c-.2.03-.51 1.1-.97 1.71z"/><path d="M128.33 1.66a126 126 0 1 0 126 126 126 126 0 0 0-126-126zm94.48 74.75a4.9 4.9 0 0 1-1.54.38 13.11 13.11 0 0 1-1.65.08h-1.08l-.94.06a42.83 42.83 0 0 0-5.16 1.24 15.83 15.83 0 0 0-3.61 1.57 9.26 9.26 0 0 0-2.47 2.16 13.59 13.59 0 0 0-1.74 2.91 36.21 36.21 0 0 0-1.48 3.86c-.48 1.46-1 3.12-1.64 5-.4 1.19-.79 2.32-1.19 3.4s-.8 2.14-1.25 3.16-.9 2-1.43 3.11-1.1 2.1-1.74 3.2a33.12 33.12 0 0 1-2.64 4c-.94 1.24-1.91 2.45-2.93 3.64l-3.07 3.53c-1.06 1.18-2.07 2.45-3.09 3.8a10.41 10.41 0 0 0-1.37 2.64c-.29.87-.61 1.73-.95 2.53a8.34 8.34 0 0 1-1.33 2.19 5.56 5.56 0 0 1-2.47 1.58 9.2 9.2 0 0 1-1.33.56l-2 .67-2 .62c-.65.2-1.09.33-1.35.38a2.87 2.87 0 0 1 .16 2 2 2 0 0 1-.85.92c-.38.21-.79.41-1.2.59a1.63 1.63 0 0 0-.89.95l-2.24 6.67a2.62 2.62 0 0 1-1 1.5 5.64 5.64 0 0 1-1.76.85 11.68 11.68 0 0 1-2 .19 15.72 15.72 0 0 1-1.84-.14h-.84c-.47 0-.85.17-1.11.05s-.42-.33-.42-.83a.55.55 0 0 1 .12-.37 2.26 2.26 0 0 1 .23-.29c.08-.1.16-.18.23-.28a.64.64 0 0 0 .1-.39.26.26 0 0 0 0-.11.77.77 0 0 1 0-.18 23.7 23.7 0 0 0-3.41 1.65c-1.1.64-2.22 1.33-3.33 2l-3.31 2.15c-1.1.72-2.2 1.36-3.33 2a3.72 3.72 0 0 1-.86.45 10.2 10.2 0 0 0-1.15.57 4.49 4.49 0 0 0-1 .78 1.45 1.45 0 0 0-.43 1v.33a1.34 1.34 0 0 1 0 .23c.56.49 1.15 1 1.77 1.61s1.25 1.15 1.93 1.71a23.09 23.09 0 0 0 2 1.59 14.16 14.16 0 0 0 2.09 1.24 8.48 8.48 0 0 0 1.79.67l1.92.53a19.6 19.6 0 0 1 1.87.64 7.37 7.37 0 0 1 1.66.9 8 8 0 0 1 1.33 1.4l1.11 1.49c.34.5.72 1 1.11 1.45a5 5 0 0 0 3.13 1.86 15.18 15.18 0 0 1 2 .64 6.22 6.22 0 0 1 1.77 1 2.1 2.1 0 0 1 .76 1.69 1.16 1.16 0 0 1-.06.28.84.84 0 0 0 0 .23l-5.58 1.14a3.52 3.52 0 0 0-1.08.38 2.39 2.39 0 0 1-1.15.26h-.28a1.63 1.63 0 0 0-.28 0c-.18-.12-.56-.33-1.12-.62l-1.72-1c-.61-.34-1.17-.69-1.68-1a6.52 6.52 0 0 1-1-.74s-.1-.08-.2-.21-.2-.32-.31-.5l-.35-.54c-.1-.18-.2-.33-.25-.44l-2.23-4.47c-.23-.08-.61-.23-1.13-.45s-1.14-.46-1.8-.74-1.36-.59-2.12-.92l-2.12-1c-.67-.3-1.26-.58-1.77-.82s-.87-.45-1.1-.59a24.65 24.65 0 0 1-2.76-1.56 16.6 16.6 0 0 1-2.6-2.12 13.25 13.25 0 0 1-2-2.67 8 8 0 0 1-1-3.1l-.56.23a3 3 0 0 0-.6.33 8.82 8.82 0 0 1-.85.64c-.46.33-1 .72-1.69 1.16s-1.37.92-2.11 1.4l-2.1 1.35-1.74 1.07c-.5.29-.81.47-.94.52q-3.34 2-5.93 3.5a23.12 23.12 0 0 0-4.51 3.39 17.21 17.21 0 0 0-3.59 4.4c-.87 1.7-.71 3.88-2.35 6.56v.68a4.17 4.17 0 0 0 0 .5v.43a9.83 9.83 0 0 0 1.14 4.41 7.67 7.67 0 0 0 2.11 2.54 8.09 8.09 0 0 0 2.6 1.4c.91.31 1.79.63 2.55 1a5.76 5.76 0 0 1 1.94.95 5 5 0 0 1 .8 2h-13.2s-.08-.25-.18-.4-.23-.11-.36-.19a4.77 4.77 0 0 0-.49-.15 3 3 0 0 1-.61-.32 2.91 2.91 0 0 1-1.25-1.53 8.37 8.37 0 0 1-.46-2.14 15 15 0 0 1 .2-2.31c0-.77.27-1.44.27-2v-1.45a6.65 6.65 0 0 1 .27-1.74c.21-.81.33-1.69.57-2.68s.47-2 .77-3.12.54-2.14.79-3.13.48-1.87.66-2.64.34-1.37.42-1.74a16.43 16.43 0 0 1 .65-2 13.26 13.26 0 0 1 1-1.87 14.32 14.32 0 0 0 4.47-2.55 28.2 28.2 0 0 0 3.22-3.25c1-1.14 1.94-2.27 2.87-3.41a15 15 0 0 1 3.41-3 7 7 0 0 1 1.43-.71l2-.79c.76-.29 1.52-.62 2.3-1a15.85 15.85 0 0 0 2.14-1.12 7.71 7.71 0 0 0 1.56-1.31 2.3 2.3 0 0 0 .61-1.55v-1.31a1.79 1.79 0 0 0-.62-1.2l-.76-.28c-.36-.15-.75-.33-1.18-.53l-1.17-.56c-.37-.16-.62-.28-.77-.33a9.86 9.86 0 0 1-2-1.2l-2.61-1.87c-.91-.66-1.75-1-2.53-1.55a3.16 3.16 0 0 0-1.73-.55h-7.81c-5.93 0-11.76-.1-17.52.09s-11.58.2-17.52.2c-4.35 0-8.61-.15-12.75-.36a105.77 105.77 0 0 1-12.28-1.36 84.39 84.39 0 0 1-11.91-2.9 69.66 69.66 0 0 1-11.69-5l-1.41-.71a14 14 0 0 1-1.58-1 5.55 5.55 0 0 1-1.28-1.28 2.54 2.54 0 0 1-.53-1.56 7 7 0 0 1 2.09.39c.79.28 1.59.58 2.38.92s1.51.66 2.17 1 1.15.51 1.5.63c1.43.56 3 1.12 4.62 1.64s3.32 1 5 1.43 3.4.74 5.08 1a34.2 34.2 0 0 0 4.81.34h25.1a8.82 8.82 0 0 0 1.22-.11l2.53-.35c1-.13 2.12-.3 3.33-.52s2.42-.4 3.6-.6 2.34-.39 3.4-.61 2-.41 2.65-.57l6.84-1.33c2.41-.46 4.85-1 7.29-1.59s4.85-1.3 7.2-2.09a47.52 47.52 0 0 0 6.56-2.78l3.8-1.76c1.23-.57 2.48-1.12 3.76-1.59s2.58-.94 3.91-1.32a32.44 32.44 0 0 1 4.18-.9 8.6 8.6 0 0 1 1-.12l1.78-.11 1.76-.15a4 4 0 0 0 1-.18 16.61 16.61 0 0 0 1.88-.33l3.32-.72c1.26-.28 2.61-.58 4-.91l4-.9c1.25-.28 2.35-.91 3.29-1.11s1.56-.71 1.87-.71h6.49c2.7 0 5.33.47 7.88.7s5.13.51 7.77.51a10 10 0 0 0 5-1.24 18.53 18.53 0 0 0 4.47-3.47 32.67 32.67 0 0 0 3.86-4.92c1.18-1.85 2.25-3.71 3.22-5.61a60.59 60.59 0 0 0 2.53-5.54c.73-1.81 1.3-3.38 1.76-4.76.43-1.18.79-2.33 1.12-3.43s.66-2.16 1-3.11a16.39 16.39 0 0 1 1.2-2.6 7.39 7.39 0 0 1 1.76-2 7.74 7.74 0 0 1 2.6-1.58 12.09 12.09 0 0 1 3.76-.78h3c.76 1.64 1.75.9 3 1.29a38.09 38.09 0 0 1 3.52 1.52 15.31 15.31 0 0 1 3 1.8 2.81 2.81 0 0 1 1.23 2.16 2.12 2.12 0 0 1-.44 1.41 3.21 3.21 0 0 1-1.2.78z"/></symbol><symbol id="velociraptor" viewBox="0 0 256 256"><path d="M127.67 1.66a126 126 0 1 0 126 126 126 126 0 0 0-126-126zm109 115c-1.4.08-2.76.08-4.07 0s-2.4-.08-3.23-.08q-4.53 0-9-.45c-3-.29-6-.62-9-1s-6-.66-9-1-6.05-.45-9.11-.45a133.2 133.2 0 0 0-16.13 1 73.19 73.19 0 0 0-15.68 3.67l-30.26 10.93a2.4 2.4 0 0 0-1.2 1.54 21.61 21.61 0 0 0-.81 2.71c-.23 1-.42 1.93-.62 2.83a7 7 0 0 1-.61 1.94 3 3 0 0 0 1.37 1.31 18.81 18.81 0 0 0 2.41 1.15l2.86 1.17a18.3 18.3 0 0 1 2.75 1.43 8.69 8.69 0 0 1 2.07 1.86 3.8 3.8 0 0 1 .8 2.43 1.63 1.63 0 0 1-.47 1.2 5.08 5.08 0 0 1-1.2.87 13.09 13.09 0 0 1-1.6.72 9.82 9.82 0 0 0-1.59.79 4.63 4.63 0 0 0-1.22 1 2.33 2.33 0 0 0-.48 1.49 3.73 3.73 0 0 0 .79 2.52 7.79 7.79 0 0 0 1.91 1.56c.74.46 1.53.89 2.35 1.32a7.51 7.51 0 0 1 2.14 1.7 17.24 17.24 0 0 1 2 3.42A24 24 0 0 1 144 168a35.17 35.17 0 0 1 .75 3.81c.18 1.3.11 2.62.26 3.92l1.3 1.29v7.1a3.78 3.78 0 0 1 .85 0c.28.05.7.1 1 .19s.68.14 1 .21a1.39 1.39 0 0 1 .56.23c0 .44.08.72.08.84a7.3 7.3 0 0 1-.1.95 8.16 8.16 0 0 1-.36 1.23 3.35 3.35 0 0 1-.62.93 1 1 0 0 1-.87.31h-5.15c-.2 0-.51-.52-1-.82s-1-.54-1.48-.85-1-.46-1.55-.77-.89-.85-1.15-.85h-6.1a4.74 4.74 0 0 1 .64-2.93 4.34 4.34 0 0 1 1.63-1.53 6.82 6.82 0 0 1 2.11-.65c.74-.1 1.44-.21 2.1-.35a4.83 4.83 0 0 0 1.61-.6 1.45 1.45 0 0 0 .64-1.35 2.26 2.26 0 0 0 0-.33v-.3c-.18-.41-.46-1-.84-1.76s-.79-1.56-1.26-2.4a27.74 27.74 0 0 0-1.51-2.45 9.76 9.76 0 0 0-1.55-1.79 8.63 8.63 0 0 0-1.28-.79c-.59-.29-1.22-.6-1.84-.93a19.5 19.5 0 0 1-1.74-1.05 2.18 2.18 0 0 1-1-1.09 22.41 22.41 0 0 1-.92-2.91 21.33 21.33 0 0 0-1.07-3.19 7.85 7.85 0 0 0-1.7-2.56 3.93 3.93 0 0 0-2.86-1 23.52 23.52 0 0 0-6 .79 26.72 26.72 0 0 0-5.67 2.22 26.14 26.14 0 0 0-4.94 3.44 22.11 22.11 0 0 0-3.9 4.53.39.39 0 0 1-.34.18h-.17a.14.14 0 0 1-.11-.15c-.07 0-.14-.14-.2-.33s-.1-.39-.17-.62-.11-.43-.16-.61a.72.72 0 0 0-.15-.33.59.59 0 0 0-.28-.06 1.41 1.41 0 0 0-1 .47 7.2 7.2 0 0 0-.87 1.15c-.28.45-.56.89-.82 1.32a3.53 3.53 0 0 1-.84 1 4.4 4.4 0 0 1-.64-1.63 14.88 14.88 0 0 1-.08-1.63 10.49 10.49 0 0 1 .39-2.88c.26-.92.56-1.84.89-2.77s.64-1.56.9-2.53a18.74 18.74 0 0 0 .4-2.75h-4.89c0-1.64.22-1.79.64-2.35a5.8 5.8 0 0 1 1.6-1.56 6.91 6.91 0 0 1 2.1-.9 9.86 9.86 0 0 1 2.1-.29 20 20 0 0 1 3 .19c1 .17 1.95.3 2.9.47s1.91.32 2.86.45a21.4 21.4 0 0 0 2.9.2h2.28a2.57 2.57 0 0 0-1.67-1.35 15 15 0 0 0-2.52-.44l-2.66-.2c-.89 0-1.6.15-2.17-.2l-3.86-2.17h-.28a13.23 13.23 0 0 0-3.14 0 12.91 12.91 0 0 1-3.12.17 7.41 7.41 0 0 1-3-.69 28.16 28.16 0 0 1-2.61-1.37c-.84-.48-1.76-.94-2.6-1.34a5.14 5.14 0 0 0-2.86-.61v6a12 12 0 0 0 1.58-.14 6.38 6.38 0 0 0 1-.33 5.83 5.83 0 0 0 .88-.51c.31-.2.37-.41.88-.64.11-.07.6-.13.6-.17v2.75l2-.68c0 .12.2.28.21.51s.13.38.13.5a5.49 5.49 0 0 1-1.31 3.84 20.94 20.94 0 0 1-3.23 2.88 22.63 22.63 0 0 0-4.56-1.42c-1.5-.25-3.1-.46-4.74-.66v-7.72c0 .08-1 .24-1.73.52a16.52 16.52 0 0 0-2 1 12.59 12.59 0 0 0-1.89 1.18c-.46.41-.93.81-.93 1.17v6.84a10.21 10.21 0 0 0 2.94-.28 12.2 12.2 0 0 0 1.82-.59 12.66 12.66 0 0 0 1.22-.6 2.66 2.66 0 0 1 1.21-.28h.15a1.2 1.2 0 0 0 .2 0c0 .12.13.35.28.72s.3.79.46 1.24.28.88.38 1.28a3.93 3.93 0 0 1 .18.95 5.11 5.11 0 0 1-.39 1.89 6.8 6.8 0 0 1-1.07 1.79 5.58 5.58 0 0 1-1.56 1.38 3.33 3.33 0 0 1-1.81.55 3.46 3.46 0 0 1-.58-.07l-.44-.05c-.74-.15-1.73-.31-3-.48a28.1 28.1 0 0 1-3.61-.7 12.28 12.28 0 0 1-3.18-1.25 2.5 2.5 0 0 1-1.43-2v-11.63c0-.12.38-.38.87-.82s1.17-1 1.87-1.6 1.52-1.35 2.36-2.15a25.16 25.16 0 0 0 2.35-2.52 18.67 18.67 0 0 0 1.8-2.63 5.38 5.38 0 0 0 .73-2.56 3.81 3.81 0 0 0-1.16-2.74 11.52 11.52 0 0 0-2.78-2 23.85 23.85 0 0 0-3.22-1.41c-1.08-.36-1.92-.66-2.51-.89l-1.3-9c-.15-.82-.35-1.71-.61-2.68a11.48 11.48 0 0 0-1.1-2.73 7 7 0 0 0-1.78-2.15 4 4 0 0 0-2.63-.87 12.07 12.07 0 0 0-3.6.48 14.87 14.87 0 0 0-3.19 1.47c-.32.23-.87.56-1.62 1s-1.58.94-2.52 1.48-1.9 1.12-2.94 1.74-2 1.19-2.94 1.73-1.78 1.22-2.52 1.64-1.29 1.11-1.62 1.11h-1c-.46 0-1-.2-1.71-.24a14.18 14.18 0 0 1-2-.36 3.33 3.33 0 0 1-1.36-.76c-.46-.31-.35-.8-.35-1.36v-1.85c0-.6-.21-.91.05-.92s.67 0 1.55 0a1.09 1.09 0 0 1 0-.43c.07-.24.09-.51.15-.8s.13-.6.18-.86a.82.82 0 0 0 0-.49 2.4 2.4 0 0 0-.79-.82c-.3-.17-.6-.33-.88-.5a2.39 2.39 0 0 1-.69-.65 2 2 0 0 1-.28-1.24 3 3 0 0 1 .25-1.16 4.61 4.61 0 0 1 .67-1.15c.28-.36.25-.64.61-.87a3 3 0 0 1 .8-.33v.77c0 .49.42 1 .56 1.46a1.17 1.17 0 0 0 1.2.73 1.59 1.59 0 0 0 1.08-.48 4.94 4.94 0 0 0 1-1.12 10 10 0 0 0 .63-1.62c.15-.44.25.27.25-1.37H22.16a1.88 1.88 0 0 1-.85-.47c-.37-.26-.71-.39-1-.67a5.85 5.85 0 0 1-.9-.79 1.43 1.43 0 0 1-.4-1 4.45 4.45 0 0 1 .99-3.17A7.4 7.4 0 0 1 22.62 99a16.4 16.4 0 0 1 3.16-1 20.42 20.42 0 0 0 2.82-.82c.41-.15 1.15-.46 2.19-.92s2.17-1 3.33-1.54 2.29-1.06 3.31-1.57a9.87 9.87 0 0 1 2.17-1.06h13.49a7.29 7.29 0 0 1 3.83 1A13.2 13.2 0 0 1 60 95.54a26.32 26.32 0 0 1 2.51 3.28c.78 1.17 1.53 2.26 2.27 3.27a17.47 17.47 0 0 0 2.22 2.53 3.69 3.69 0 0 0 2.47 1 .81.81 0 0 0 .77-.4.89.89 0 0 1 .84-.39 3.91 3.91 0 0 1 1.5.31c.49.2 1 .44 1.51.71s1 .49 1.51.69a3.92 3.92 0 0 0 1.54.31c1.38 0 2.75-.07 4.08-.2s2.7-.28 4.06-.44 2.73-.33 4.08-.48a36.33 36.33 0 0 1 4.07-.23 62.18 62.18 0 0 1 7.23.4 38.54 38.54 0 0 1 7.17 1.56c1.64.56 3.3 1.21 5 2s3.36 1.46 5.06 2.15a46.24 46.24 0 0 0 5.17 1.75 21.19 21.19 0 0 0 5.39.69h1.25c.63 0 1.06-.07 1.32-.07q6.39-1.38 12.75-2.68c4.24-.85 8.48-1.63 12.71-2.27s8.51-1.15 12.8-1.54 8.63-.56 13-.56h3.3c1.79 0 3.62 0 5.46.11a39.85 39.85 0 0 1 5 .93l36.08 7.18h11.6c-.79 0-1.82 1-3.11 1.35a18.43 18.43 0 0 1-3.99.15z"/></symbol></svg>